<svg version="1.1" id="Layer_1" xmlns="http://www.w3.org/2000/svg" xmlns:xlink="http://www.w3.org/1999/xlink" x="0px" y="0px"
	 width="100%" viewBox="0 0 1024 1024" enable-background="new 0 0 1024 1024" xml:space="preserve">
<path fill="#000000" opacity="1.000000" stroke="none" 
	d="
M590.759155,702.842163 
	C588.337036,694.154602 591.828186,687.513672 597.386108,680.740967 
	C540.886841,680.740967 485.114014,680.740967 428.481110,680.740967 
	C434.488098,687.522217 437.697998,694.691284 435.156128,703.339417 
	C433.732025,708.184692 430.777344,711.914307 426.608276,714.669861 
	C417.721191,720.543762 405.941589,718.774109 399.109741,710.594788 
	C391.823792,701.871765 393.164154,690.347046 402.719238,680.143982 
	C401.789795,678.447510 400.003296,678.601624 398.478271,678.212280 
	C373.387024,671.807129 355.957520,650.243164 354.499390,624.441345 
	C354.203522,619.205872 352.367523,614.049133 351.159058,608.875427 
	C349.343933,601.104431 347.451477,593.351624 345.600616,585.588989 
	C344.396515,580.538940 340.684601,578.050842 336.325378,575.880554 
	C317.243439,566.380798 308.301422,545.193298 314.648041,524.935608 
	C320.587067,505.978760 339.865021,493.688629 360.190002,495.901611 
	C391.765381,499.339539 414.836151,520.295715 420.913086,551.314575 
	C421.932770,556.519226 422.386780,561.859497 422.216248,567.217346 
	C422.154694,569.151367 421.857056,571.186279 422.881866,573.017578 
	C482.981598,558.476929 542.894287,558.456970 603.348816,573.173645 
	C604.455872,566.733154 603.759277,560.258911 604.504089,553.888794 
	C607.828918,525.452515 632.246399,500.623932 660.617126,496.573608 
	C676.134888,494.358246 689.855652,497.130981 701.128967,508.363556 
	C720.924744,528.087830 716.133667,561.725464 691.400391,574.752136 
	C684.403992,578.437134 680.645264,582.925415 679.183960,590.812683 
	C676.523132,605.174133 672.891968,619.345764 670.032654,633.701355 
	C665.393311,656.994202 650.055054,671.381958 627.460510,678.163513 
	C626.350952,678.496582 625.221802,678.766357 624.120728,679.123962 
	C623.846069,679.213135 623.645447,679.529907 623.136475,679.989929 
	C631.811462,687.829346 634.205566,697.246094 628.721741,707.744263 
	C624.921509,715.019531 618.108398,718.533325 610.087219,718.113708 
	C600.580750,717.616272 593.936401,712.495972 590.759155,702.842163 
z"/>
<path fill="#000000" opacity="1.000000" stroke="none" 
	d="
M638.334351,465.974792 
	C640.044739,474.928711 636.317871,479.151764 628.599854,483.036041 
	C605.559021,494.631866 590.857727,513.781006 583.637390,538.412415 
	C582.250732,543.142822 580.429504,544.038818 576.123291,543.271545 
	C554.926208,539.494751 533.477295,538.425659 512.018921,538.514648 
	C491.387512,538.600159 470.747131,539.561768 450.364716,543.196411 
	C445.588867,544.048035 443.509766,542.832886 442.039459,537.856445 
	C434.136780,511.109100 417.200958,491.889343 391.983948,480.066986 
	C388.798767,478.573669 387.550385,476.810242 387.586609,473.295044 
	C387.751404,457.299469 386.963959,441.262939 387.831238,425.312469 
	C389.443604,395.659271 400.595154,369.669830 420.928467,347.959503 
	C447.561066,319.523346 480.776611,306.368713 519.491089,307.844666 
	C576.983276,310.036469 626.686768,354.386383 636.386536,411.138763 
	C639.474792,429.207733 637.819519,447.363953 638.334351,465.974792 
M518.075684,396.403625 
	C510.285461,383.735901 499.199341,375.059967 485.526764,369.507996 
	C466.831573,361.916473 447.253937,361.562714 427.531128,362.460693 
	C426.234131,362.519745 424.862946,362.797455 423.840363,364.697052 
	C427.376007,368.524048 431.312439,372.310181 433.887543,377.179504 
	C438.445129,385.797699 441.227142,395.016937 443.291138,404.458038 
	C447.430115,423.390442 456.768250,439.010345 472.045380,451.079254 
	C481.191437,458.304657 490.213318,465.692535 499.153137,473.172150 
	C508.257233,480.789276 514.866150,490.256561 519.432434,501.222931 
	C523.012512,509.820770 524.435913,518.964966 526.586426,527.983826 
	C527.146729,526.167969 527.612244,524.380188 527.634277,522.586914 
	C527.897339,501.196564 524.731079,480.447235 515.357544,461.004333 
	C504.548035,438.582947 489.282776,419.269104 472.832458,400.808441 
	C471.722534,399.562927 469.952972,398.628571 470.084747,395.071289 
	C497.095795,416.182617 511.766937,445.013977 528.355225,472.736877 
	C534.950134,446.190857 532.214417,420.911072 518.075684,396.403625 
M562.815491,385.297058 
	C548.961914,388.975281 539.660889,398.060608 533.635254,410.610046 
	C529.948120,418.289062 534.652039,425.447144 535.071167,434.239410 
	C546.656738,421.611145 556.728821,409.858337 571.558960,402.481598 
	C571.324036,405.539154 569.712463,406.046509 568.586548,406.914703 
	C558.277405,414.863586 549.018127,423.877350 540.229797,433.490845 
	C534.625122,439.621765 536.411621,446.065491 536.847046,453.831940 
	C546.672302,445.709778 557.370972,441.322723 567.144531,435.358063 
	C575.177002,430.455963 581.441284,423.947906 585.553162,415.501373 
	C590.517517,405.303955 594.139893,394.238525 605.594666,387.659546 
	C590.979004,383.838074 577.475525,381.681885 562.815491,385.297058 
M558.871521,456.339233 
	C547.551147,457.901367 538.223999,468.714691 540.070557,478.520813 
	C545.616638,472.779999 551.289734,467.450592 558.849670,464.677948 
	C552.106995,471.426239 543.076721,475.950226 538.932495,486.203308 
	C553.186584,480.152588 566.301147,474.256042 571.551086,458.709686 
	C568.338135,456.311707 564.042480,456.287537 558.871521,456.339233 
z"/>
</svg>